<svg id="Layer_1" data-name="Layer 1" xmlns="http://www.w3.org/2000/svg" viewBox="0 0 522.95 110.95"><defs><style>.cls-1,.cls-2,.cls-4,.cls-5{fill:#231f20;}.cls-1,.cls-3,.cls-4,.cls-5{stroke:#231f20;stroke-miterlimit:10;}.cls-3{fill:none;stroke-width:6px;}.cls-4{font-size:43.94px;stroke-width:0.5px;}.cls-4,.cls-5{font-family:Arial-BoldItalicMT, Arial;font-weight:700;font-style:italic;}.cls-5{font-size:37px;stroke-width:0.75px;letter-spacing:-0.02em;}</style></defs><path class="cls-1" d="M104.45,42.1S128,22.86,134.6,21.77s18.33-1.61,18.33-1.61L142.51,42.1Z" transform="translate(-4.21 -6.27)"/><path class="cls-2" d="M166.32,19.18c-4.16,9.34-6.25,13.93-10.42,22.92l57.06,0c-3.08-9.72-4.62-14.55-7.7-24.13Q185.79,18.38,166.32,19.18Z" transform="translate(-4.21 -6.27)"/><path class="cls-2" d="M213.66,42.6H155.12c4.35-9.37,6.53-14.17,10.88-23.92q19.8-.83,39.62-1.29C208.84,27.4,210.44,32.44,213.66,42.6Zm-57-1q27.78-.06,55.57-.08c-2.94-9.28-4.41-13.89-7.35-23q-19.14.43-38.27,1.2C162.66,28.6,160.67,33,156.69,41.6Z" transform="translate(-4.21 -6.27)"/><path class="cls-2" d="M215.92,17.71c2.63,9.69,4,14.56,6.59,24.34h58.7c-2.42-9.82-3.62-14.75-6-24.61Q245.54,17.17,215.92,17.71Z" transform="translate(-4.21 -6.27)"/><path class="cls-2" d="M281.86,42.6H222.13c-2.75-10.22-4.13-15.3-6.88-25.42q30.15-.59,60.31-.29C278.08,27.2,279.34,32.34,281.86,42.6Zm-59-1.09h57.67c-2.3-9.38-3.45-14.09-5.76-23.52q-29.1-.16-58.21.26C219.1,27.51,220.36,32.16,222.88,41.51Z" transform="translate(-4.21 -6.27)"/><path class="cls-2" d="M286,17.56q31.83.53,63.63,1.81c2.41,9.19,3.62,13.74,6,22.73q-31.69,0-63.4,0C289.71,32.29,288.46,27.39,286,17.56Z" transform="translate(-4.21 -6.27)"/><path class="cls-2" d="M356.27,42.6H291.84c-2.62-10.2-3.92-15.32-6.54-25.6q32.35.54,64.67,1.88C352.49,28.48,353.75,33.23,356.27,42.6ZM292.6,41.51,355,41.6c-2.31-8.6-3.46-13-5.76-21.74q-31.29-1.23-62.59-1.75C289,27.5,290.21,32.19,292.6,41.51Z" transform="translate(-4.21 -6.27)"/><path class="cls-1" d="M363.28,19.67l5.49,22.43h68.57s-30.17-19.2-37-20.3S363.28,19.67,363.28,19.67Z" transform="translate(-4.21 -6.27)"/><path class="cls-2" d="M262.05,6.27c12.68,0,25.29.4,37.9.8s25.22.88,37.82,1.41Q375.57,10,413.34,12l.83,0,.69.46,31.61,21.18-1.35-.49,68.3,7.27h0l1.65.18.59,1.24,11.5,24.51L510.54,45l2.24,1.42h0l-68.29-7.27-.74-.08-.62-.41L411.52,17.45,413,18Q375.29,16,337.52,14.47q-18.88-.78-37.76-1.4c-12.58-.41-25.18-.76-37.71-.8Z" transform="translate(-4.21 -6.27)"/><path class="cls-3" d="M17.18,63,23,42.78l69.56-6.32L125.47,15s96.11-5.69,136.58-5.69" transform="translate(-4.21 -6.27)"/><polygon class="cls-2" points="487.09 34.83 496.06 49.41 517.01 50.84 508.6 37.12 487.09 34.83"/><path class="cls-2" d="M37.44,88.78Q38.49,77,45.84,70.55t18.29-5.5q9.5.81,14.36,6.44t4.08,14.39a26.18,26.18,0,0,1-8.26,17.25q-7.34,6.95-18.51,6a23.27,23.27,0,0,1-10.53-3.31,15.72,15.72,0,0,1-6.37-7.4A20,20,0,0,1,37.44,88.78Zm33.75-5.37a9,9,0,0,0-1.81-6.74,8.29,8.29,0,0,0-6-3,10.53,10.53,0,0,0-6.87,1.72,14.93,14.93,0,0,0-5.11,6.29,23.62,23.62,0,0,0-2.34,7.92,10.19,10.19,0,0,0,1.86,7.45A8.22,8.22,0,0,0,57,100.28a9.92,9.92,0,0,0,8.36-3.35A21.58,21.58,0,0,0,71.19,83.41Z" transform="translate(-4.21 -6.27)"/><path class="cls-2" d="M461,88.78q1.05-11.79,8.4-18.23t18.29-5.5q9.5.81,14.36,6.44t4.08,14.39a26.18,26.18,0,0,1-8.26,17.25q-7.33,6.95-18.51,6a23.19,23.19,0,0,1-10.52-3.31,15.69,15.69,0,0,1-6.38-7.4A20.1,20.1,0,0,1,461,88.78Zm33.76-5.37A9,9,0,0,0,493,76.67a8.29,8.29,0,0,0-6-3,10.53,10.53,0,0,0-6.87,1.72A15,15,0,0,0,475,81.7a23.81,23.81,0,0,0-2.33,7.92,10.19,10.19,0,0,0,1.86,7.45,8.25,8.25,0,0,0,6.05,3.21,9.91,9.91,0,0,0,8.36-3.35A21.64,21.64,0,0,0,494.78,83.41Z" transform="translate(-4.21 -6.27)"/><text class="cls-4" transform="translate(78.53 94.16) scale(1.13 1)">NG ISLAND LIM</text><text class="cls-5" transform="translate(0.38 89.46) scale(1.14 1)">L</text><polygon class="cls-2" points="10.13 55.75 9.11 59.45 15.24 59.45 16.39 55.75 10.13 55.75"/><path class="cls-2" d="M60.13,57c34.37-1,68.75-1.57,103.12-1.94,17.18-.23,34.37-.28,51.56-.42l51.55-.14,51.56.13c17.19.14,34.38.19,51.56.42,34.37.37,68.75.91,103.12,2-34.37,1-68.75,1.59-103.12,1.95-17.18.23-34.37.28-51.56.42l-51.56.13-51.55-.14c-17.19-.13-34.38-.18-51.56-.42C128.88,58.6,94.5,58.06,60.13,57Z" transform="translate(-4.21 -6.27)"/></svg>